Coordinates
version=1
nRows=64
nColumns=11
inDegrees=yes

Units are S.I. units (second, meters, Newtons, ...)
If the header above contains a line with 'inDegrees', this indicates whether rotational values are in degrees (yes) or radians (no).

endheader
time	pelvis_tilt	pelvis_tx	pelvis_ty	hip_flexion_l	hip_flexion_r	knee_angle_l	knee_angle_r	ankle_angle_l	ankle_angle_r	lumbar_extension
      4.64000000	      0.62274402	      1.78121410	      0.86477984	    -16.13637056	     36.94049967	    -21.08843709	    -30.86117950	     17.69126005	      0.87248018	    -13.11459914
      4.65000000	      0.06347761	      1.79405258	      0.86398941	    -15.57459584	     37.55455807	    -22.44904392	    -32.36821265	     16.32294014	      0.09333225	    -12.39979574
      4.66000000	     -0.35774616	      1.80689458	      0.86381976	    -15.13716559	     37.81132275	    -23.82375704	    -33.57966712	     14.61104979	     -0.62657707	    -11.87069620
      4.67000000	     -0.79033209	      1.81986766	      0.86388108	    -14.54198198	     37.81677799	    -25.43478760	    -34.25956592	     12.84444855	     -1.23425804	    -11.31467287
      4.68000000	     -1.18740629	      1.83278150	      0.86439279	    -13.82100908	     37.60388922	    -27.17361819	    -34.63818968	     10.88710967	     -1.75599413	    -10.82798120
      4.69000000	     -1.55601404	      1.84569715	      0.86525423	    -12.98346583	     37.31807908	    -29.11978962	    -35.10241655	      8.63566173	     -1.20660044	    -10.36729114
      4.70000000	     -1.80570557	      1.85846600	      0.86629456	    -12.14833828	     36.92198154	    -31.27113946	    -35.60774057	      6.26754852	     -0.26121129	    -10.06312512
      4.71000000	     -1.99945443	      1.87106535	      0.86764285	    -11.12371680	     36.46991512	    -33.59625054	    -36.07905234	      3.97755057	      0.26706413	     -9.83708051
      4.72000000	     -2.24189474	      1.88336590	      0.86930284	     -9.92363233	     36.04310649	    -35.84123570	    -36.45512888	      1.58998092	      0.84560956	     -9.58058885
      4.73000000	     -2.39888394	      1.89527651	      0.87110960	     -8.61103907	     35.53336372	    -38.26291821	    -36.82644699	     -0.75893737	      1.67601909	     -9.44507454
      4.74000000	     -2.60600360	      1.90686461	      0.87310477	     -7.13731919	     35.03373861	    -40.70589417	    -37.07661171	     -3.02032348	      2.40356127	     -9.24514655
      4.75000000	     -2.74227028	      1.91824735	      0.87519946	     -5.70059725	     34.37244030	    -43.01909049	    -37.14929886	     -5.06576522	      3.04930951	     -9.11225850
      4.76000000	     -2.84585289	      1.92954325	      0.87733353	     -4.15747763	     33.63603585	    -45.45167184	    -37.16127101	     -6.43260852	      3.66601774	     -9.01099119
      4.77000000	     -2.91679152	      1.94055111	      0.87965567	     -2.60886547	     32.82623962	    -47.78259468	    -37.04787149	     -7.06123009	      4.14387787	     -8.92819747
      4.78000000	     -2.87179126	      1.95159830	      0.88218726	     -1.17159200	     31.79604862	    -49.95366265	    -36.76483260	     -7.16083488	      4.65268512	     -8.95914980
      4.79000000	     -2.69497967	      1.96257538	      0.88493523	      0.19172264	     30.56790744	    -52.00847683	    -36.38376476	     -7.31396893	      5.32329019	     -9.12178669
      4.80000000	     -2.63206381	      1.97339060	      0.88772752	      1.73921994	     29.40331205	    -53.91212114	    -35.85423041	     -7.76602243	      5.70356465	     -9.15087370
      4.81000000	     -2.52353023	      1.98402363	      0.89063550	      3.30255893	     28.15414030	    -55.72027028	    -35.22674240	     -8.11827951	      6.09812738	     -9.22213834
      4.82000000	     -2.36010593	      1.99459278	      0.89370047	      4.84982228	     26.80984627	    -57.44657856	    -34.52708172	     -8.28382113	      6.41597016	     -9.36289314
      4.83000000	     -2.37059901	      2.00491425	      0.89637565	      6.67703069	     25.69382297	    -59.11802686	    -33.84987196	     -8.42773250	      6.60970356	     -9.30438922
      4.84000000	     -2.26696200	      2.01517484	      0.89916682	      8.40488990	     24.43904328	    -60.68986979	    -33.12656555	     -8.53278429	      6.80007493	     -9.37540130
      4.85000000	     -2.12746138	      2.02530752	      0.90182998	     10.16393566	     23.09187386	    -62.21208918	    -32.28260043	     -8.34812334	      6.98054176	     -9.51719548
      4.86000000	     -1.90612546	      2.03539930	      0.90447462	     11.80520622	     21.68927349	    -63.57966792	    -31.49415186	     -8.05809671	      7.22320671	     -9.74924461
      4.87000000	     -1.71051767	      2.04547499	      0.90696184	     13.48652927	     20.33439221	    -64.81135139	    -30.71563905	     -7.81965447	      7.36246834	     -9.92191758
      4.88000000	     -1.34612643	      2.05561670	      0.90955672	     14.96427349	     18.73864583	    -65.93363386	    -29.84516977	     -7.51487026	      7.58087424	    -10.30102144
      4.89000000	     -1.15817892	      2.06552125	      0.91160692	     16.67113537	     17.39187249	    -66.98212738	    -29.04014034	     -6.99239830	      7.84597116	    -10.46889341
      4.90000000	     -0.91919411	      2.07556627	      0.91360587	     18.29029557	     15.98744766	    -67.89557381	    -28.24882149	     -6.62227895	      8.11313328	    -10.66273233
      4.91000000	     -0.59384025	      2.08570145	      0.91559763	     19.75522069	     14.50153911	    -68.64161797	    -27.47442818	     -6.14534433	      8.23184451	    -10.92190764
      4.92000000	     -0.31366557	      2.09594712	      0.91736683	     21.24548548	     13.00152765	    -69.23280254	    -26.59214789	     -5.97164593	      8.42701254	    -11.06548364
      4.93000000	     -0.01628219	      2.10635708	      0.91908598	     22.57310954	     11.49035007	    -69.55167886	    -25.75263161	     -5.69452281	      8.47043282	    -11.19190574
      4.94000000	      0.27654933	      2.11688204	      0.92060629	     23.82621720	     10.00276666	    -69.68376521	    -24.94895812	     -5.33778654	      8.58007298	    -11.27324732
      4.95000000	      0.58146295	      2.12754046	      0.92195651	     24.97223697	      8.47207229	    -69.59580898	    -24.17162201	     -4.78617914	      8.97709763	    -11.35131199
      4.96000000	      0.78965823	      2.13800624	      0.92309226	     26.13086988	      7.09315118	    -69.22954153	    -23.34554363	     -4.52811494	      9.00010235	    -11.33741813
      4.97000000	      1.12504623	      2.14890216	      0.92424686	     26.98366903	      5.56137262	    -68.54399495	    -22.57361337	     -4.17917005	      9.25040587	    -11.42266218
      4.98000000	      1.41688097	      2.15989938	      0.92528182	     27.70815155	      3.99321157	    -67.54419779	    -21.71402091	     -3.76241788	      9.41275257	    -11.43456596
      4.99000000	      1.86518114	      2.17073391	      0.92642455	     28.18060808	      2.22704773	    -66.26931104	    -20.70632917	     -3.01080627	      9.10314945	    -11.68183649
      5.00000000	      2.15293296	      2.18175551	      0.92724986	     28.62989888	      0.73634565	    -64.66444975	    -19.91325321	     -2.67252439	      9.15585640	    -11.69550944
      5.01000000	      2.54555846	      2.19283232	      0.92805779	     28.81745224	     -0.81450500	    -62.79042621	    -19.22160078	     -2.25166925	      9.08256316	    -11.83888071
      5.02000000	      2.98451138	      2.20388970	      0.92876662	     28.80191276	     -2.36542040	    -60.59744300	    -18.61136702	     -1.94411027	      8.91749035	    -12.04583177
      5.03000000	      3.45603306	      2.21504888	      0.92939413	     28.57124086	     -3.84570778	    -58.12756040	    -18.21284235	     -1.55802678	      8.78485733	    -12.31098015
      5.04000000	      4.02085192	      2.22642336	      0.92996272	     28.08600652	     -5.40260575	    -55.41637721	    -17.90687398	     -1.16235302	      8.80263653	    -12.63716326
      5.05000000	      4.52144935	      2.23783314	      0.93039727	     27.53619700	     -6.87961378	    -52.47275948	    -17.57776491	     -1.21640307	      8.55594802	    -12.89307062
      5.06000000	      5.09245183	      2.24932463	      0.93072713	     26.76729418	     -8.38373622	    -49.30656067	    -17.38541353	     -1.04762101	      8.42266867	    -13.24794412
      5.07000000	      5.66045452	      2.26085516	      0.93086263	     25.87215058	     -9.83841131	    -45.99183552	    -17.27284508	     -0.92748143	      8.28309084	    -13.60040431
      5.08000000	      6.20447185	      2.27248952	      0.93089476	     24.89232425	    -11.25626182	    -42.56431894	    -17.19017924	     -0.87857144	      8.08912248	    -13.91710825
      5.09000000	      6.73358071	      2.28446104	      0.93043327	     23.70100207	    -12.61082224	    -39.08872122	    -17.23531120	      3.75231409	      7.84904419	    -14.17837517
      5.10000000	      6.99643175	      2.29627629	      0.92965169	     22.94401969	    -13.55059516	    -35.79815178	    -17.50970594	      3.56371763	      7.91678226	    -14.16908564
      5.11000000	      7.23008909	      2.30785243	      0.92856733	     22.26637496	    -14.32396184	    -32.74816262	    -18.00595602	      3.00033058	      7.75657936	    -14.18541480
      5.12000000	      7.39117361	      2.31934628	      0.92722439	     21.76827613	    -14.93898031	    -30.09212312	    -18.61744531	      2.59914294	      7.69640419	    -14.14668393
      5.13000000	      7.40485011	      2.33071112	      0.92541491	     21.57355180	    -15.32473922	    -27.96444553	    -19.39142831	      2.07237655	      7.87093353	    -13.97861501
      5.14000000	      7.33252903	      2.34199740	      0.92329828	     21.61182995	    -15.63325773	    -26.38736496	    -20.11670717	      1.37485726	      7.86860171	    -13.74825145
      5.15000000	      7.35732776	      2.35333413	      0.92106352	     21.67708977	    -16.06562169	    -25.44318323	    -20.81044751	      0.83575466	      8.09496092	    -13.64713455
      5.16000000	      7.23171331	      2.36475721	      0.91843849	     21.99054994	    -16.38904809	    -25.01082082	    -21.44663055	      0.21612000	      8.20576220	    -13.37976096
      5.17000000	      7.20864699	      2.37621756	      0.91571770	     22.24618607	    -16.87505964	    -24.97333184	    -21.99187186	     -0.33028121	      8.25220457	    -13.26903297
      5.18000000	      7.15083657	      2.38817054	      0.91285842	     22.43368141	    -17.43902061	    -25.10262646	    -22.38586244	     -0.87660019	      8.32799949	    -13.06654785
      5.19000000	      7.05558713	      2.40016088	      0.90967228	     22.58865443	    -17.97277799	    -25.29429975	    -22.75690052	     -1.48923240	      8.42078228	    -12.83390429
      5.20000000	      6.84398485	      2.41242488	      0.90617259	     22.66001782	    -18.38482183	    -25.51102225	    -23.17387049	     -1.22506207	      8.47278737	    -12.45325173
      5.21000000	      6.46743186	      2.42488441	      0.90247734	     22.75767634	    -18.62257469	    -26.11546100	    -23.61133463	     -0.27037363	      8.36161767	    -11.99076959
      5.22000000	      5.94622846	      2.43635736	      0.89915644	     23.12461375	    -18.45667127	    -28.00487311	    -24.33228397	      3.74660429	      8.04691223	    -11.39708632
      5.23000000	      5.42859714	      2.44771999	      0.89590805	     23.70354605	    -18.15467091	    -29.87585976	    -25.30825373	      6.05834747	      7.70760834	    -10.79046868
      5.24000000	      4.72881785	      2.45858833	      0.89322410	     24.67860452	    -17.34785154	    -31.21371539	    -26.70962937	      7.46521116	      7.08480958	    -10.05142166
      5.25000000	      4.23490581	      2.46877512	      0.89144896	     25.38419624	    -16.42860140	    -32.65304223	    -28.63463820	      8.84064563	      6.11988005	     -9.65619329
      5.26000000	      3.74048051	      2.47875955	      0.89046055	     25.86116145	    -15.19247923	    -33.93284480	    -31.06306773	     10.08707182	      4.89742744	     -9.30112955
      5.27000000	      3.44283320	      2.48825080	      0.89015678	     25.81463564	    -13.79062064	    -34.60795938	    -33.87796323	     11.45353176	      3.46932523	     -9.25907050
